<?xml version="1.0" encoding="utf-8"?>
<!-- Generator: Adobe Illustrator 19.2.1, SVG Export Plug-In . SVG Version: 6.00 Build 0)  -->
<svg version="1.1" id="Layer_1" xmlns="http://www.w3.org/2000/svg" xmlns:xlink="http://www.w3.org/1999/xlink" x="0px" y="0px"
	 viewBox="0 0 699.8 295.8" enable-background="new 0 0 699.8 295.8" xml:space="preserve">
<g>
	<polygon fill="#4BBBAD" points="519.5,7.8 683.5,7.8 636.5,47.3 683.5,86.7 519.5,86.7 	"/>
	<path fill="#010101" d="M687.6,88.2H518V6.3h169.6l-48.8,40.9L687.6,88.2z M521,85.2h158.4l-45.2-37.9l45.2-37.9H521V85.2z"/>
</g>
<g>
	<polygon fill="#B8E2DF" points="616.4,47.3 519.5,7.8 519.5,86.7 616.4,126.1 	"/>
	<path fill="#010101" d="M617.9,128.3L518,87.7V5.6l100,40.6V128.3z M521,85.7l94,38.2V48.3l-94-38.2V85.7z"/>
</g>
<g>
	<polygon fill="#4BBBAD" points="176.4,286 12.4,286 59.4,246.6 12.4,207.2 176.4,207.2 	"/>
	<path fill="#010101" d="M177.9,287.5H8.3l48.8-40.9L8.3,205.7h169.6V287.5z M16.6,284.5h158.4v-75.8H16.6l45.2,37.9L16.6,284.5z"/>
</g>
<g>
	<polygon fill="#B8E2DF" points="79.4,246.6 176.4,286 176.4,207.2 79.4,167.8 	"/>
	<path fill="#010101" d="M177.9,288.3l-100-40.6v-82.1l100,40.6V288.3z M80.9,245.6l94,38.2v-75.6l-94-38.2V245.6z"/>
</g>
<g>
	<polygon fill="#B8E2DF" points="616.4,246.6 79.4,126.1 79.4,47.3 616.4,167.8 	"/>
	<path fill="#010101" d="M617.9,248.5l-540-121.2V45.4l1.8,0.4l538.2,120.8V248.5z M80.9,124.9l534,119.9V169L80.9,49.1V124.9z"/>
</g>
<g>
	<rect x="79.4" y="47.3" fill="#4BBBAD" width="537" height="78.8"/>
	<path fill="#010101" d="M617.9,127.6h-540V45.8h540V127.6z M80.9,124.6h534V48.8h-534V124.6z"/>
</g>
<g>
	<rect x="79.4" y="167.8" fill="#4BBBAD" width="537" height="78.8"/>
	<path fill="#010101" d="M617.9,248.1h-540v-81.8h540V248.1z M80.9,245.1h534v-75.8h-534V245.1z"/>
</g>
<g>
	<path fill="#FFFFFF" d="M119.8,105.5v-35h26.4v6.9h-18.8v7.1H144v6.9h-16.5v7.4h19v6.9H119.8z"/>
	<path fill="#FFFFFF" d="M153.3,105.5v-35h7.7v28h17.5v7H153.3z"/>
	<path fill="#FFFFFF" d="M184.3,105.5v-35h7.7v28h17.5v7H184.3z"/>
	<path fill="#FFFFFF" d="M215.2,105.5v-35h26.4v6.9h-18.8v7.1h16.5v6.9h-16.5v7.4h19v6.9H215.2z"/>
	<path fill="#FFFFFF" d="M273.3,105.5l-17-22.3v22.3h-7.6v-35h7.1l16.4,21.6V70.5h7.6v35H273.3z"/>
	<path fill="#FFFFFF" d="M300.7,106c-5.3,0-10.7-1.9-14.9-5.6l4.6-5.5c3.2,2.6,6.5,4.3,10.5,4.3c3.2,0,5.1-1.2,5.1-3.3v-0.1
		c0-2-1.2-3-7.1-4.5c-7.1-1.8-11.6-3.8-11.6-10.7v-0.1c0-6.4,5.1-10.6,12.3-10.6c5.1,0,9.5,1.6,13,4.5l-4,5.8
		c-3.1-2.2-6.2-3.5-9.1-3.5s-4.5,1.4-4.5,3.1V80c0,2.3,1.5,3.1,7.6,4.6c7.1,1.9,11.1,4.4,11.1,10.5v0.1
		C313.5,102.1,308.2,106,300.7,106z"/>
	<path fill="#FFFFFF" d="M336.9,105.5h-16.7v-35h16.3c7.2,0,11.6,3.5,11.6,9.1v0.1c0,4-2.1,6.2-4.6,7.6c4.1,1.6,6.6,3.9,6.6,8.6v0.1
		C350,102.3,344.8,105.5,336.9,105.5z M340.4,80.9c0-2.3-1.8-3.6-5.1-3.6h-7.6v7.4h7.1c3.4,0,5.6-1.1,5.6-3.7V80.9z M342.3,94.9
		c0-2.4-1.8-3.8-5.7-3.8h-8.9v7.7h9.2c3.4,0,5.5-1.2,5.5-3.8V94.9z"/>
	<path fill="#FFFFFF" d="M370.9,106.1c-9.4,0-15.2-5.2-15.2-15.6v-20h7.7v19.8c0,5.7,2.9,8.7,7.6,8.7s7.5-2.9,7.5-8.4V70.5h7.7v19.8
		C386.3,100.9,380.3,106.1,370.9,106.1z"/>
	<path fill="#FFFFFF" d="M415.4,105.5l-7.5-11.2h-6.1v11.2h-7.7v-35h16c8.3,0,13.2,4.4,13.2,11.6v0.1c0,5.7-3.1,9.2-7.5,10.9
		l8.6,12.5H415.4z M415.5,82.5c0-3.3-2.3-5-6.1-5h-7.7v10.1h7.8c3.8,0,5.9-2,5.9-5V82.5z"/>
	<path fill="#FFFFFF" d="M447.1,106.1c-10.9,0-18.4-7.7-18.4-18V88c0-10,7.8-18.1,18.4-18.1c6.3,0,10.1,1.7,13.8,4.8l-4.9,5.9
		c-2.7-2.2-5.1-3.6-9.2-3.6c-5.6,0-10.1,5-10.1,10.9V88c0,6.4,4.4,11.1,10.6,11.1c2.8,0,5.3-0.7,7.2-2.1v-5h-7.8v-6.7h15.2v15.2
		C458.5,103.6,453.5,106.1,447.1,106.1z"/>
	<path fill="#FFFFFF" d="M471.5,105.5h-3.1v-8h8.1v6.8c0,6.6-3.3,9.3-9.2,9.4l-0.7-3.2C470,110.1,471.7,108.4,471.5,105.5z"/>
	<path fill="#FFFFFF" d="M532.2,105.8h-6.7l-7.9-22.9l-7.9,22.9H503l-12-35.3h8.3l7.2,23.7l7.9-23.8h6.6l7.9,23.8l7.2-23.7h8.1
		L532.2,105.8z"/>
	<path fill="#FFFFFF" d="M571.4,105.5l-3.2-7.9h-14.8l-3.2,7.9h-7.9l15-35.3h7.1l15,35.3H571.4z M560.8,79.5l-4.7,11.4h9.3
		L560.8,79.5z"/>
</g>
<g>
	<path fill="#FFFFFF" d="M202.6,198h1.2l7.8,16.9h-1.4l-2.1-4.7h-9.9l-2.1,4.7h-1.3L202.6,198z M207.6,209.1l-4.4-9.7l-4.4,9.7
		H207.6z"/>
	<path fill="#FFFFFF" d="M215.2,198.1h1.2l11.6,14.6v-14.6h1.2v16.8h-0.9L216.4,200v14.9h-1.2V198.1z"/>
	<path fill="#FFFFFF" d="M248,215.2c-1,0-1.9-0.2-2.8-0.5c-0.8-0.3-1.6-0.8-2.2-1.4c-0.6-0.6-1.1-1.4-1.4-2.3
		c-0.3-0.9-0.5-1.9-0.5-3.1v-9.8h1.2v9.7c0,2,0.5,3.5,1.5,4.6c1,1.1,2.4,1.6,4.2,1.6c0.8,0,1.6-0.1,2.3-0.4c0.7-0.3,1.3-0.6,1.8-1.2
		c0.5-0.5,0.9-1.2,1.1-1.9c0.3-0.8,0.4-1.7,0.4-2.7v-9.8h1.2v9.7c0,1.2-0.2,2.3-0.5,3.2s-0.8,1.7-1.4,2.3s-1.3,1.1-2.2,1.4
		C250,215,249,215.2,248,215.2z"/>
	<path fill="#FFFFFF" d="M259.6,198.1h7.1c1,0,2,0.1,2.8,0.4c0.8,0.3,1.5,0.7,2,1.2c0.4,0.4,0.7,0.9,0.9,1.4s0.3,1.1,0.3,1.7v0
		c0,0.7-0.1,1.3-0.4,1.9c-0.2,0.6-0.6,1-1,1.4c-0.4,0.4-1,0.7-1.6,1c-0.6,0.2-1.3,0.4-2,0.5l5.5,7.2h-1.6l-5.4-7h0h-5.4v7h-1.2
		V198.1z M266.5,206.8c0.7,0,1.4-0.1,2-0.3c0.6-0.2,1.1-0.4,1.5-0.8s0.8-0.7,1-1.2s0.4-1,0.4-1.6v0c0-1.1-0.4-2-1.3-2.7s-2-1-3.6-1
		h-5.7v7.6H266.5z"/>
	<path fill="#FFFFFF" d="M277,198.1h6.9c1,0,1.8,0.1,2.6,0.4s1.3,0.6,1.8,1.1c0.7,0.7,1.1,1.6,1.1,2.6v0c0,0.6-0.1,1.1-0.3,1.5
		s-0.4,0.8-0.7,1.1c-0.3,0.3-0.6,0.6-0.9,0.8c-0.3,0.2-0.7,0.4-1,0.5c0.5,0.1,1,0.3,1.4,0.5c0.5,0.2,0.9,0.5,1.2,0.8
		c0.3,0.3,0.6,0.7,0.8,1.1s0.3,0.9,0.3,1.5v0c0,0.7-0.1,1.3-0.4,1.9c-0.3,0.6-0.7,1-1.2,1.4c-0.5,0.4-1.2,0.7-1.9,0.9
		c-0.7,0.2-1.6,0.3-2.5,0.3H277V198.1z M283.8,205.9c0.6,0,1.2-0.1,1.7-0.2c0.5-0.2,1-0.4,1.4-0.7c0.4-0.3,0.7-0.7,0.9-1.1
		c0.2-0.4,0.3-0.9,0.3-1.5v0c0-0.9-0.4-1.7-1.1-2.3c-0.7-0.6-1.8-0.9-3.1-0.9h-5.7v6.6H283.8z M284.3,213.8c1.4,0,2.6-0.3,3.4-0.9
		c0.8-0.6,1.3-1.5,1.3-2.5v0c0-1-0.4-1.9-1.3-2.4c-0.9-0.6-2.1-0.9-3.8-0.9h-5.7v6.8H284.3z"/>
	<path fill="#FFFFFF" d="M300.7,198h1.2l7.8,16.9h-1.4l-2.1-4.7h-9.9l-2.1,4.7h-1.3L300.7,198z M305.7,209.1l-4.4-9.7l-4.4,9.7
		H305.7z"/>
	<path fill="#FFFFFF" d="M313.3,198.1h1.2l11.6,14.6v-14.6h1.2v16.8h-0.9L314.5,200v14.9h-1.2V198.1z"/>
	<path fill="#FFFFFF" d="M339.4,198.1h6.9c1,0,1.8,0.1,2.6,0.4s1.3,0.6,1.8,1.1c0.7,0.7,1.1,1.6,1.1,2.6v0c0,0.6-0.1,1.1-0.3,1.5
		s-0.4,0.8-0.7,1.1c-0.3,0.3-0.6,0.6-0.9,0.8c-0.3,0.2-0.7,0.4-1,0.5c0.5,0.1,1,0.3,1.4,0.5c0.5,0.2,0.9,0.5,1.2,0.8
		c0.3,0.3,0.6,0.7,0.8,1.1s0.3,0.9,0.3,1.5v0c0,0.7-0.1,1.3-0.4,1.9c-0.3,0.6-0.7,1-1.2,1.4c-0.5,0.4-1.2,0.7-1.9,0.9
		c-0.7,0.2-1.6,0.3-2.5,0.3h-7.3V198.1z M346.2,205.9c0.6,0,1.2-0.1,1.7-0.2c0.5-0.2,1-0.4,1.4-0.7c0.4-0.3,0.7-0.7,0.9-1.1
		c0.2-0.4,0.3-0.9,0.3-1.5v0c0-0.9-0.4-1.7-1.1-2.3c-0.7-0.6-1.8-0.9-3.1-0.9h-5.7v6.6H346.2z M346.8,213.8c1.4,0,2.6-0.3,3.4-0.9
		c0.8-0.6,1.3-1.5,1.3-2.5v0c0-1-0.4-1.9-1.3-2.4c-0.9-0.6-2.1-0.9-3.8-0.9h-5.7v6.8H346.8z"/>
	<path fill="#FFFFFF" d="M363.1,198h1.2l7.8,16.9h-1.4l-2.1-4.7h-9.9l-2.1,4.7h-1.3L363.1,198z M368.1,209.1l-4.4-9.7l-4.4,9.7
		H368.1z"/>
	<path fill="#FFFFFF" d="M375.7,198.1h7.1c1,0,2,0.1,2.8,0.4c0.8,0.3,1.5,0.7,2,1.2c0.4,0.4,0.7,0.9,0.9,1.4s0.3,1.1,0.3,1.7v0
		c0,0.7-0.1,1.3-0.4,1.9c-0.2,0.6-0.6,1-1,1.4c-0.4,0.4-1,0.7-1.6,1c-0.6,0.2-1.3,0.4-2,0.5l5.5,7.2h-1.6l-5.4-7h0H377v7h-1.2V198.1
		z M382.6,206.8c0.7,0,1.4-0.1,2-0.3c0.6-0.2,1.1-0.4,1.5-0.8s0.8-0.7,1-1.2s0.4-1,0.4-1.6v0c0-1.1-0.4-2-1.3-2.7s-2-1-3.6-1H377
		v7.6H382.6z"/>
	<path fill="#FFFFFF" d="M393.1,198.1h1.2l11.6,14.6v-14.6h1.2v16.8h-0.9L394.3,200v14.9h-1.2V198.1z"/>
	<path fill="#FFFFFF" d="M424.9,215.2c-1.3,0-2.6-0.2-3.6-0.7c-1.1-0.4-2.1-1.1-3.1-2l0.8-0.9c0.5,0.4,0.9,0.8,1.4,1.1
		c0.5,0.3,0.9,0.6,1.4,0.8c0.5,0.2,1,0.4,1.5,0.5c0.5,0.1,1.1,0.2,1.7,0.2s1.2-0.1,1.7-0.3c0.5-0.2,1-0.4,1.3-0.7s0.7-0.6,0.9-1.1
		c0.2-0.4,0.3-0.9,0.3-1.3v0c0-0.4-0.1-0.8-0.2-1.2c-0.1-0.4-0.4-0.7-0.7-1c-0.4-0.3-0.8-0.5-1.5-0.8c-0.6-0.2-1.4-0.4-2.4-0.6
		c-1-0.2-1.9-0.5-2.6-0.7s-1.3-0.6-1.8-1c-0.5-0.4-0.8-0.8-1-1.3c-0.2-0.5-0.3-1.1-0.3-1.7v0c0-0.6,0.1-1.2,0.4-1.7
		c0.3-0.5,0.6-1,1.1-1.4c0.5-0.4,1-0.7,1.7-0.9c0.7-0.2,1.4-0.3,2.2-0.3c1.2,0,2.3,0.2,3.2,0.5c0.9,0.3,1.8,0.8,2.6,1.5l-0.8,1
		c-0.8-0.7-1.6-1.2-2.4-1.5s-1.7-0.4-2.6-0.4c-0.6,0-1.2,0.1-1.7,0.3s-0.9,0.4-1.3,0.7c-0.4,0.3-0.6,0.6-0.8,1
		c-0.2,0.4-0.3,0.8-0.3,1.2v0c0,0.4,0.1,0.9,0.2,1.2s0.4,0.7,0.7,1c0.4,0.3,0.9,0.6,1.5,0.8c0.6,0.2,1.5,0.5,2.4,0.7
		c2,0.4,3.4,1,4.2,1.7s1.3,1.7,1.3,2.9v0c0,0.7-0.1,1.3-0.4,1.9c-0.3,0.6-0.7,1.1-1.2,1.5c-0.5,0.4-1.1,0.7-1.8,0.9
		C426.5,215,425.7,215.2,424.9,215.2z"/>
	<path fill="#FFFFFF" d="M439.2,199.2h-5.9v-1.1h13v1.1h-5.9v15.7h-1.2V199.2z"/>
	<path fill="#FFFFFF" d="M457.8,215.2c-1.3,0-2.4-0.2-3.5-0.7s-1.9-1.1-2.7-1.9c-0.7-0.8-1.3-1.7-1.7-2.7c-0.4-1-0.6-2.1-0.6-3.3v0
		c0-1.2,0.2-2.3,0.6-3.3s1-2,1.7-2.8c0.7-0.8,1.6-1.4,2.7-1.9s2.2-0.7,3.5-0.7c1.3,0,2.4,0.2,3.5,0.7s1.9,1.1,2.7,1.9
		s1.3,1.7,1.7,2.7c0.4,1,0.6,2.1,0.6,3.3c0,0,0,0,0,0c0,1.2-0.2,2.3-0.6,3.3c-0.4,1-1,2-1.7,2.8c-0.7,0.8-1.6,1.4-2.7,1.9
		S459.1,215.2,457.8,215.2z M457.9,214.1c1,0,2-0.2,2.9-0.6c0.9-0.4,1.6-0.9,2.3-1.6s1.1-1.5,1.5-2.4c0.4-0.9,0.5-1.9,0.5-2.9v0
		c0-1-0.2-2-0.5-2.9c-0.4-0.9-0.9-1.7-1.5-2.4c-0.6-0.7-1.4-1.2-2.3-1.6c-0.9-0.4-1.8-0.6-2.9-0.6s-2,0.2-2.9,0.6s-1.6,0.9-2.3,1.6
		c-0.6,0.7-1.1,1.5-1.5,2.4c-0.4,0.9-0.5,1.9-0.5,2.9v0c0,1,0.2,2,0.5,2.9s0.9,1.7,1.5,2.4c0.6,0.7,1.4,1.2,2.3,1.6
		C455.9,213.9,456.8,214.1,457.9,214.1z"/>
	<path fill="#FFFFFF" d="M470.5,198.1h7.1c1,0,2,0.1,2.8,0.4c0.8,0.3,1.5,0.7,2,1.2c0.4,0.4,0.7,0.9,0.9,1.4s0.3,1.1,0.3,1.7v0
		c0,0.7-0.1,1.3-0.4,1.9c-0.2,0.6-0.6,1-1,1.4c-0.4,0.4-1,0.7-1.6,1c-0.6,0.2-1.3,0.4-2,0.5l5.5,7.2h-1.6l-5.4-7h0h-5.4v7h-1.2
		V198.1z M477.4,206.8c0.7,0,1.4-0.1,2-0.3c0.6-0.2,1.1-0.4,1.5-0.8s0.8-0.7,1-1.2s0.4-1,0.4-1.6v0c0-1.1-0.4-2-1.3-2.7s-2-1-3.6-1
		h-5.7v7.6H477.4z"/>
	<path fill="#FFFFFF" d="M493.4,208.3l-7.2-10.2h1.6l6.3,9l6.3-9h1.5l-7.2,10.1v6.7h-1.2V208.3z"/>
</g>
<g>
	<line fill="#B8E2DF" x1="117.7" y1="126.1" x2="147.3" y2="132.7"/>
	
		<rect x="131" y="114.3" transform="matrix(0.219 -0.9757 0.9757 0.219 -22.7953 230.3598)" fill="#010101" width="3" height="30.3"/>
</g>
<g>
	<line fill="#B8E2DF" x1="137.7" y1="126.1" x2="167.3" y2="132.7"/>
	
		<rect x="151" y="114.3" transform="matrix(0.219 -0.9757 0.9757 0.219 -7.1623 249.8904)" fill="#010101" width="3" height="30.3"/>
</g>
<g>
	<line fill="#B8E2DF" x1="157.7" y1="126.1" x2="187.3" y2="132.7"/>
	<rect x="171" y="114.3" transform="matrix(0.219 -0.9757 0.9757 0.219 8.4705 269.4207)" fill="#010101" width="3" height="30.3"/>
</g>
<g>
	<line fill="#B8E2DF" x1="177.8" y1="126.1" x2="207.3" y2="132.7"/>
	<rect x="191" y="114.3" transform="matrix(0.219 -0.9757 0.9757 0.219 24.1033 288.951)" fill="#010101" width="3" height="30.3"/>
</g>
<g>
	<line fill="#B8E2DF" x1="197.8" y1="126.1" x2="227.4" y2="132.7"/>
	
		<rect x="211.1" y="114.3" transform="matrix(0.219 -0.9757 0.9757 0.219 39.7353 308.4804)" fill="#010101" width="3" height="30.3"/>
</g>
<g>
	<line fill="#B8E2DF" x1="581" y1="167.8" x2="551.4" y2="161.1"/>
	
		<rect x="564.7" y="149.3" transform="matrix(0.219 -0.9757 0.9757 0.219 281.7396 680.9047)" fill="#010101" width="3" height="30.3"/>
</g>
<g>
	<line fill="#B8E2DF" x1="561" y1="167.8" x2="531.4" y2="161.1"/>
	
		<rect x="544.7" y="149.3" transform="matrix(0.219 -0.9757 0.9757 0.219 266.1071 661.3741)" fill="#010101" width="3" height="30.3"/>
</g>
<g>
	<line fill="#B8E2DF" x1="541" y1="167.8" x2="511.4" y2="161.1"/>
	
		<rect x="524.7" y="149.3" transform="matrix(0.219 -0.9757 0.9757 0.219 250.4753 641.8445)" fill="#010101" width="3" height="30.3"/>
</g>
<g>
	<line fill="#B8E2DF" x1="521" y1="167.8" x2="491.4" y2="161.1"/>
	
		<rect x="504.7" y="149.3" transform="matrix(0.219 -0.9757 0.9757 0.219 234.8464 622.3163)" fill="#010101" width="3" height="30.3"/>
</g>
<g>
	<line fill="#B8E2DF" x1="500.9" y1="167.8" x2="471.4" y2="161.1"/>
	
		<rect x="484.7" y="149.3" transform="matrix(0.219 -0.9757 0.9757 0.219 219.211 602.7842)" fill="#010101" width="3" height="30.3"/>
</g>
</svg>
