<?xml version="1.0" encoding="utf-8"?>
<!-- Generator: Adobe Illustrator 19.2.1, SVG Export Plug-In . SVG Version: 6.00 Build 0)  -->
<svg version="1.1" id="Layer_1" xmlns="http://www.w3.org/2000/svg" xmlns:xlink="http://www.w3.org/1999/xlink" x="0px" y="0px"
	 viewBox="0 0 526 381" enable-background="new 0 0 526 381" xml:space="preserve">
<g>
	<rect x="10.8" y="10.5" fill="#B8E2DF" stroke="#010101" stroke-width="3" stroke-miterlimit="10" width="504" height="360"/>
	<rect x="10.8" y="210.5" fill="#71AF71" stroke="#010101" stroke-width="3" stroke-miterlimit="10" width="504" height="160"/>
	<path fill="#71AF71" stroke="#010101" stroke-width="3" stroke-miterlimit="10" d="M413.4,210.7c11.2-38.6,46.8-66.9,89-66.9
		c4.2,0,8.3,0.3,12.4,0.8v65.8L413.4,210.7z"/>
	<path fill="#71AF71" stroke="#010101" stroke-width="3" stroke-miterlimit="10" d="M366.7,141.9c2.9-0.3,5.8-0.4,8.7-0.4
		c25,0,47.4,10.8,62.9,28c0,0-18.5,15.8-25,41.2h-19.5v-39.5l-27.1-4.5V141.9z"/>
	<polyline fill="#4BBBAD" stroke="#010101" stroke-width="3" stroke-miterlimit="10" points="259.9,211.1 132.1,83.3 68.3,147 
		36.8,115.5 10.8,141.5 10.8,210.5 	"/>
	<polyline fill="#4BBBAD" stroke="#010101" stroke-width="3" stroke-miterlimit="10" points="148.2,210.5 188.8,170 229.1,210.3 	
		"/>
	<polygon fill="#B8E2DF" stroke="#010101" stroke-width="3" stroke-miterlimit="10" points="200.5,181.7 195.5,186.7 190.7,182 
		186.3,186.5 179.3,179.5 188.8,170 	"/>
	<polygon fill="#DD2226" points="393.8,171.2 393.8,210.7 257.7,210.5 257.7,171 284.7,166.7 284.7,124.5 326,108 366.7,124.5 
		366.7,166.7 	"/>
	<line fill="none" stroke="#010101" stroke-width="3" stroke-miterlimit="10" x1="10.8" y1="210.5" x2="514.8" y2="210.5"/>
	<polygon fill="#064D38" stroke="#010101" stroke-width="3" stroke-miterlimit="10" points="474.3,210.5 314.3,370.5 514.8,370.5 
		514.8,210.5 	"/>
	<line fill="none" stroke="#010101" stroke-width="3" stroke-miterlimit="10" x1="334.3" y1="370.5" x2="494.2" y2="210.5"/>
	<line fill="none" stroke="#010101" stroke-width="3" stroke-miterlimit="10" x1="354.2" y1="370.5" x2="514.2" y2="210.5"/>
	<line fill="none" stroke="#010101" stroke-width="3" stroke-miterlimit="10" x1="371.6" y1="370.5" x2="514.6" y2="227.5"/>
	<line fill="none" stroke="#010101" stroke-width="3" stroke-miterlimit="10" x1="390.7" y1="370.5" x2="514.6" y2="246.6"/>
	<line fill="none" stroke="#010101" stroke-width="3" stroke-miterlimit="10" x1="409.7" y1="370.5" x2="515.2" y2="265"/>
	<line fill="none" stroke="#010101" stroke-width="3" stroke-miterlimit="10" x1="428.8" y1="370.5" x2="515.2" y2="284"/>
	<line fill="none" stroke="#010101" stroke-width="3" stroke-miterlimit="10" x1="447.8" y1="370.5" x2="515.2" y2="303.1"/>
	<line fill="none" stroke="#010101" stroke-width="3" stroke-miterlimit="10" x1="466.9" y1="370.5" x2="515.2" y2="322.1"/>
	<line fill="none" stroke="#010101" stroke-width="3" stroke-miterlimit="10" x1="485.9" y1="370.5" x2="514.6" y2="341.8"/>
	<rect x="298.8" y="155.5" fill="#EF4438" stroke="#010101" stroke-width="3" stroke-miterlimit="10" width="54" height="55"/>
	<polyline fill="none" stroke="#010101" stroke-width="3" stroke-miterlimit="10" points="284.7,123 284.7,166.7 253.8,171.2 	"/>
	<polyline fill="none" stroke="#010101" stroke-width="3" stroke-miterlimit="10" points="397.5,172.2 366.7,166.7 366.7,123 	"/>
	<polyline fill="none" stroke="#010101" stroke-width="3" stroke-miterlimit="10" points="280.8,125 326,108 370.5,125 	"/>
	<line fill="none" stroke="#010101" stroke-width="3" stroke-miterlimit="10" x1="298.8" y1="155.5" x2="352.7" y2="210.5"/>
	<line fill="none" stroke="#010101" stroke-width="3" stroke-miterlimit="10" x1="352.7" y1="155.5" x2="298.8" y2="210.5"/>
	<polygon fill="#EF4438" stroke="#010101" stroke-width="3" stroke-miterlimit="10" points="314.5,112.3 314.5,102 326,96.7 
		337,101.9 337,112.2 326,108 	"/>
	<polyline fill="none" stroke="#010101" stroke-width="3" stroke-miterlimit="10" points="312.3,103 326,96.7 339.3,103 	"/>
	<rect x="310.6" y="125.7" fill="#B8E2DF" stroke="#010101" stroke-width="3" stroke-miterlimit="10" width="30.8" height="15.8"/>
	<rect x="269.4" y="179.5" fill="#EF4438" stroke="#010101" stroke-width="3" stroke-miterlimit="10" width="16.5" height="31"/>
	<rect x="364.8" y="179.5" fill="#B8E2DF" stroke="#010101" stroke-width="3" stroke-miterlimit="10" width="17.4" height="10.5"/>
	<polygon fill="#A6A6A6" stroke="#010101" stroke-width="3" stroke-miterlimit="10" points="10.8,267.1 71,210.7 116.1,210.7 
		10.8,362 	"/>
	<g>
		<g>
			<line fill="none" stroke="#010101" stroke-width="3" stroke-miterlimit="10" x1="10.8" y1="312.8" x2="14.5" y2="308.1"/>
			
				<line fill="none" stroke="#010101" stroke-width="3" stroke-miterlimit="10" stroke-dasharray="13.1956,13.1956" x1="22.8" y1="297.8" x2="84.8" y2="220.7"/>
			<line fill="none" stroke="#010101" stroke-width="3" stroke-miterlimit="10" x1="88.9" y1="215.6" x2="92.7" y2="210.9"/>
		</g>
	</g>
	<polygon fill="#B8E2DF" stroke="#010101" stroke-width="3" stroke-miterlimit="10" points="152.3,103.7 144.6,111.4 132.7,99.5 
		124.9,107.4 116.1,99.3 132.1,83.3 	"/>
	<polygon fill="#B8E2DF" stroke="#010101" stroke-width="3" stroke-miterlimit="10" points="51.7,130.7 43.2,139.2 35.8,131.8 
		25,142.5 17.4,134.9 36.8,115.5 	"/>
	<line fill="none" stroke="#010101" stroke-width="3" stroke-miterlimit="10" x1="117.8" y1="210.5" x2="117.8" y2="173.4"/>
	<polyline fill="none" stroke="#010101" stroke-width="3" stroke-miterlimit="10" points="109.6,181.7 117.8,173.4 126,181.6 	"/>
	<polyline fill="none" stroke="#010101" stroke-width="3" stroke-miterlimit="10" points="109.6,203.6 117.8,195.3 126,203.5 	"/>
	<polyline fill="none" stroke="#010101" stroke-width="3" stroke-miterlimit="10" points="109.6,192.6 117.8,184.4 126,192.5 	"/>
	<rect x="97.2" y="304.1" fill="#E8DCD1" stroke="#010101" stroke-width="3" stroke-miterlimit="10" width="5.5" height="33.7"/>
	<rect x="267.4" y="304.1" fill="#E8DCD1" stroke="#010101" stroke-width="3" stroke-miterlimit="10" width="5.5" height="33.7"/>
	<rect x="238" y="234" fill="#E8DCD1" stroke="#010101" stroke-width="3" stroke-miterlimit="10" width="5.5" height="22.6"/>
	<rect x="127.2" y="234" fill="#E8DCD1" stroke="#010101" stroke-width="3" stroke-miterlimit="10" width="5.5" height="22.6"/>
	<line fill="none" stroke="#010101" stroke-width="3" stroke-miterlimit="10" x1="97.2" y1="306.1" x2="127.2" y2="236"/>
	<line fill="none" stroke="#010101" stroke-width="3" stroke-miterlimit="10" x1="132.7" y1="238" x2="238" y2="238"/>
	<line fill="none" stroke="#010101" stroke-width="3" stroke-miterlimit="10" x1="243.5" y1="236" x2="272.9" y2="306.1"/>
	<line fill="none" stroke="#010101" stroke-width="3" stroke-miterlimit="10" x1="102.7" y1="308.1" x2="267.4" y2="308.1"/>
	<line fill="none" stroke="#010101" stroke-width="3" stroke-miterlimit="10" x1="102.7" y1="306.7" x2="127.2" y2="249.9"/>
	<line fill="none" stroke="#010101" stroke-width="3" stroke-miterlimit="10" x1="132.7" y1="247.9" x2="238" y2="247.9"/>
	<line fill="none" stroke="#010101" stroke-width="3" stroke-miterlimit="10" x1="243.8" y1="249.9" x2="267.5" y2="306.7"/>
	<line fill="none" stroke="#010101" stroke-width="3" stroke-miterlimit="10" x1="102.7" y1="322.5" x2="267.4" y2="322.5"/>
	<g>
		<line fill="none" stroke="#010101" stroke-width="3" stroke-miterlimit="10" x1="97.8" y1="210.5" x2="97.8" y2="156.5"/>
		<polyline fill="none" stroke="#010101" stroke-width="3" stroke-miterlimit="10" points="89.6,174.7 97.8,166.4 105.9,174.6 		"/>
		<polyline fill="none" stroke="#010101" stroke-width="3" stroke-miterlimit="10" points="89.6,163.7 97.8,155.5 105.9,163.6 		"/>
		<polyline fill="none" stroke="#010101" stroke-width="3" stroke-miterlimit="10" points="89.6,196.6 97.8,188.3 105.9,196.5 		"/>
		<polyline fill="none" stroke="#010101" stroke-width="3" stroke-miterlimit="10" points="89.6,185.6 97.8,177.4 105.9,185.5 		"/>
	</g>
	<polygon fill="#064D38" stroke="#010101" stroke-width="3" stroke-miterlimit="10" points="129.9,184.8 151.7,184.8 140.8,163.9 	
		"/>
	<line fill="none" stroke="#010101" stroke-width="3" stroke-miterlimit="10" x1="140.8" y1="163.9" x2="140.8" y2="210.5"/>
	<polygon fill="#71AF71" stroke="#010101" stroke-width="3" stroke-miterlimit="10" points="66.3,195.6 84.1,195.6 75.2,178.6 	"/>
	<line fill="none" stroke="#010101" stroke-width="3" stroke-miterlimit="10" x1="75.2" y1="178.6" x2="75.2" y2="210.5"/>
	<line fill="none" stroke="#010101" stroke-width="3" stroke-miterlimit="10" x1="25.4" y1="211.1" x2="25.4" y2="164.1"/>
	<polyline fill="none" stroke="#010101" stroke-width="3" stroke-miterlimit="10" points="17.2,172.3 25.4,164.1 33.6,172.2 	"/>
	<polyline fill="none" stroke="#010101" stroke-width="3" stroke-miterlimit="10" points="17.2,183.3 25.4,175 33.6,183.2 	"/>
	<line fill="none" stroke="#010101" stroke-width="3" stroke-miterlimit="10" x1="242.6" y1="211.1" x2="242.6" y2="158.1"/>
	<polyline fill="none" stroke="#010101" stroke-width="3" stroke-miterlimit="10" points="234.4,166.3 242.6,158.1 250.7,166.2 	"/>
	<polyline fill="none" stroke="#010101" stroke-width="3" stroke-miterlimit="10" points="234.4,177.3 242.6,169 250.7,177.2 	"/>
	<line fill="none" stroke="#010101" stroke-width="3" stroke-miterlimit="10" x1="467.3" y1="171.1" x2="467.3" y2="74.5"/>
	<line fill="none" stroke="#010101" stroke-width="3" stroke-miterlimit="10" x1="409.4" y1="148.6" x2="409.4" y2="104.9"/>
	<circle fill="none" stroke="#010101" stroke-width="3" stroke-miterlimit="10" cx="467.3" cy="67" r="3.3"/>
	<circle fill="#A6A6A6" stroke="#010101" stroke-width="3" stroke-miterlimit="10" cx="409.4" cy="97.6" r="3.3"/>
	<polygon fill="#A6A6A6" stroke="#010101" stroke-width="3" stroke-miterlimit="10" points="412.8,100.9 436.3,120.1 432.9,123.5 	
		"/>
	<polygon fill="#A6A6A6" stroke="#010101" stroke-width="3" stroke-miterlimit="10" points="406,100.9 386.8,124.4 383.4,121 	"/>
	<polygon fill="#A6A6A6" stroke="#010101" stroke-width="3" stroke-miterlimit="10" points="409.2,94.1 406.1,63.9 410.9,63.9 	"/>
	<circle fill="#A6A6A6" stroke="#010101" stroke-width="3" stroke-miterlimit="10" cx="467.3" cy="67.1" r="3.3"/>
	<polygon fill="#A6A6A6" stroke="#010101" stroke-width="3" stroke-miterlimit="10" points="470.8,70.5 494.2,89.6 490.8,93 	"/>
	<polygon fill="#A6A6A6" stroke="#010101" stroke-width="3" stroke-miterlimit="10" points="463.9,70.5 444.7,93.9 441.3,90.5 	"/>
	<polygon fill="#A6A6A6" stroke="#010101" stroke-width="3" stroke-miterlimit="10" points="467.1,63.6 464,33.4 468.8,33.4 	"/>
	<line fill="none" stroke="#010101" stroke-width="3" stroke-miterlimit="10" x1="459.3" y1="171.1" x2="475.6" y2="171.1"/>
	<path fill="#E8DCD1" stroke="#010101" stroke-width="3" stroke-miterlimit="10" d="M163.5,277.5l2.8,20.1h6.8l3.5-11.8h25.1
		l3.3,11.8h6.1l4.6-26.8c0,0,0.6-7.2-8.8-7.2s-34.8,0-34.8,0"/>
	<path fill="none" stroke="#010101" stroke-width="3" stroke-miterlimit="10" d="M214.5,266.7c0,0,3.3,3.6,5.9,12"/>
	<path fill="#A6A6A6" stroke="#010101" stroke-width="3" stroke-miterlimit="10" d="M257.8,74.6c-2.1,0-3.8,1.7-3.8,3.8
		c0,1.5,0.8,2.8,2.1,3.4h41c1.9-1.5,3.8-4.9,3.8-7.5c0-4.4-3.6-7.9-7.9-7.9c-0.8,0-1.6,0.1-2.3,0.3l-0.1-0.3
		c-1.7-4.3-5.9-7.4-10.9-7.4c-5.7,0-10.4,4-11.4,9.4l-0.1,0.5c-0.8-0.4-1.7-0.5-2.7-0.5c-3.5,0-6.3,2.5-6.9,5.9
		C258.4,74.5,257.8,74.6,257.8,74.6z"/>
	<g>
		<circle fill="#E6E01D" stroke="#010101" stroke-width="3" stroke-miterlimit="10" cx="197.3" cy="56.6" r="21.2"/>
		<line fill="none" stroke="#010101" stroke-width="3" stroke-miterlimit="10" x1="197.3" y1="82.4" x2="197.3" y2="91"/>
		<line fill="none" stroke="#010101" stroke-width="3" stroke-miterlimit="10" x1="197.3" y1="22.1" x2="197.3" y2="30.7"/>
		<line fill="none" stroke="#010101" stroke-width="3" stroke-miterlimit="10" x1="171.5" y1="56.6" x2="162.8" y2="56.6"/>
		<line fill="none" stroke="#010101" stroke-width="3" stroke-miterlimit="10" x1="231.8" y1="56.6" x2="223.1" y2="56.6"/>
		<line fill="none" stroke="#010101" stroke-width="3" stroke-miterlimit="10" x1="179" y1="74.8" x2="172.9" y2="80.9"/>
		<line fill="none" stroke="#010101" stroke-width="3" stroke-miterlimit="10" x1="221.7" y1="32.2" x2="215.5" y2="38.3"/>
		<line fill="none" stroke="#010101" stroke-width="3" stroke-miterlimit="10" x1="215.5" y1="74.8" x2="221.7" y2="80.9"/>
		<line fill="none" stroke="#010101" stroke-width="3" stroke-miterlimit="10" x1="172.9" y1="32.2" x2="179" y2="38.3"/>
	</g>
	<path fill="#A6A6A6" stroke="#010101" stroke-width="3" stroke-miterlimit="10" d="M80.3,91.8c1.6,0,2.8,1.3,2.8,2.8
		c0,1.1-0.6,2-1.5,2.5H51.2c-1.4-1.1-2.8-3.7-2.8-5.6c0-3.3,2.6-5.9,5.9-5.9c0.6,0,1.2,0.1,1.7,0.3l0.1-0.3c1.3-3.2,4.4-5.5,8-5.5
		c4.2,0,7.7,3,8.5,7l0.1,0.4c0.6-0.3,1.3-0.4,2-0.4c2.6,0,4.7,1.9,5.1,4.3C79.9,91.8,80.3,91.8,80.3,91.8z"/>
	<path fill="#A6A6A6" stroke="#010101" stroke-width="3" stroke-miterlimit="10" d="M129.9,47.4c-0.1,0-0.3,0-0.4,0
		c-0.6-6.8-6.3-12.1-13.2-12.1c-4.5,0-8.5,2.2-10.9,5.7c-0.8-0.1-1.6-0.2-2.5-0.2c-5.9,0-10.6,4.8-10.6,10.6c0,0.4,0,0.7,0.1,1.1
		c-0.4-0.1-0.8-0.2-1.2-0.2c-2.7,0-4.9,2.2-4.9,4.9c0,0.2,0.1,1.3,0.1,1.3h49.8c0,0,1-2.4,1-3.7C137.2,50.7,133.9,47.4,129.9,47.4z"
		/>
	<path fill="#A6A6A6" stroke="#010101" stroke-width="3" stroke-miterlimit="10" d="M331.5,47.4c0.1,0,0.3,0,0.4,0
		c0.6-6.8,6.3-12.1,13.2-12.1c4.5,0,8.5,2.2,10.9,5.7c0.8-0.2,1.6-0.3,2.4-0.3c5.9,0,10.6,4.8,10.6,10.6c0,0.4,0,0.7-0.1,1.1
		c0.4-0.1,0.8-0.2,1.2-0.2c2.7,0,4.9,2.2,4.9,4.9c0,0.2-0.1,1.3-0.1,1.3h-49.8c0,0-1-2.4-1-3.7C324.3,50.7,327.5,47.4,331.5,47.4z"
		/>
	<g>
		<line fill="none" stroke="#010101" stroke-width="3" stroke-miterlimit="10" x1="292.8" y1="222" x2="292.8" y2="269.1"/>
		<line fill="none" stroke="#010101" stroke-width="3" stroke-miterlimit="10" x1="292.8" y1="229.5" x2="288.7" y2="225.4"/>
		<line fill="none" stroke="#010101" stroke-width="3" stroke-miterlimit="10" x1="292.8" y1="235.5" x2="288.7" y2="231.4"/>
		<line fill="none" stroke="#010101" stroke-width="3" stroke-miterlimit="10" x1="292.7" y1="229.5" x2="296.8" y2="225.4"/>
		<line fill="none" stroke="#010101" stroke-width="3" stroke-miterlimit="10" x1="292.7" y1="235.5" x2="296.8" y2="231.4"/>
	</g>
	<g>
		<line fill="none" stroke="#010101" stroke-width="3" stroke-miterlimit="10" x1="282.8" y1="232" x2="282.8" y2="279.1"/>
		<line fill="none" stroke="#010101" stroke-width="3" stroke-miterlimit="10" x1="282.8" y1="239.5" x2="278.7" y2="235.4"/>
		<line fill="none" stroke="#010101" stroke-width="3" stroke-miterlimit="10" x1="282.8" y1="245.5" x2="278.7" y2="241.4"/>
		<line fill="none" stroke="#010101" stroke-width="3" stroke-miterlimit="10" x1="282.7" y1="239.5" x2="286.8" y2="235.4"/>
		<line fill="none" stroke="#010101" stroke-width="3" stroke-miterlimit="10" x1="282.7" y1="245.5" x2="286.8" y2="241.4"/>
	</g>
	<g>
		<line fill="none" stroke="#010101" stroke-width="3" stroke-miterlimit="10" x1="302.8" y1="232" x2="302.8" y2="279.1"/>
		<line fill="none" stroke="#010101" stroke-width="3" stroke-miterlimit="10" x1="302.8" y1="239.5" x2="298.7" y2="235.4"/>
		<line fill="none" stroke="#010101" stroke-width="3" stroke-miterlimit="10" x1="302.8" y1="245.5" x2="298.7" y2="241.4"/>
		<line fill="none" stroke="#010101" stroke-width="3" stroke-miterlimit="10" x1="302.7" y1="239.5" x2="306.8" y2="235.4"/>
		<line fill="none" stroke="#010101" stroke-width="3" stroke-miterlimit="10" x1="302.7" y1="245.5" x2="306.8" y2="241.4"/>
	</g>
	<path fill="#E8DCD1" stroke="#010101" stroke-width="3" stroke-miterlimit="10" d="M150.3,257.7h26.1l-4.5,5.2
		c0,0-0.8,14.6-8.6,14.6s-8.9-14.5-8.9-14.5L150.3,257.7z"/>
	<g>
		<circle fill="#010101" cx="161.6" cy="264.5" r="1"/>
		<circle fill="#010101" cx="165.2" cy="264.5" r="1"/>
	</g>
	<g>
		<path fill="none" stroke="#010101" stroke-width="3" stroke-miterlimit="10" d="M155.4,252.5c0,0,0.6,5.3,2.6,5.3"/>
		<path fill="none" stroke="#010101" stroke-width="3" stroke-miterlimit="10" d="M171.3,252.5c0,0-0.6,5.3-2.6,5.3"/>
	</g>
	<g>
		<polygon fill="#064D38" stroke="#010101" stroke-width="3" stroke-miterlimit="10" points="335.3,250 342.8,242.5 342.8,222 
			370.7,222 370.7,242 397.1,246.6 397.1,264.6 409.3,261.7 409.3,267.1 343.7,267.1 		"/>
		<circle fill="#A6A6A6" stroke="#010101" stroke-width="3" stroke-miterlimit="10" cx="350.9" cy="261.7" r="14.7"/>
		<circle fill="#A6A6A6" stroke="#010101" stroke-width="3" stroke-miterlimit="10" cx="395" cy="269.1" r="7.4"/>
		<line fill="none" stroke="#010101" stroke-width="3" stroke-miterlimit="10" x1="390.8" y1="250" x2="390.8" y2="257.6"/>
		<line fill="none" stroke="#010101" stroke-width="3" stroke-miterlimit="10" x1="368.3" y1="267.1" x2="384.5" y2="267.1"/>
		<line fill="none" stroke="#010101" stroke-width="3" stroke-miterlimit="10" x1="371.4" y1="222" x2="375.8" y2="223.5"/>
		<rect x="348.3" y="227" fill="#B8E2DF" stroke="#010101" stroke-width="3" stroke-miterlimit="10" width="16.9" height="13.3"/>
		<polygon fill="#064D38" stroke="#010101" stroke-width="3" stroke-miterlimit="10" points="417.6,246.6 408.8,253.8 409.3,265 
			417.6,271.5 		"/>
		<line fill="none" stroke="#010101" stroke-width="3" stroke-miterlimit="10" x1="397.1" y1="250" x2="408.8" y2="257.6"/>
		<circle fill="#A6A6A6" stroke="#010101" stroke-width="3" stroke-miterlimit="10" cx="350.9" cy="261.7" r="5.3"/>
		<circle fill="none" stroke="#010101" stroke-width="3" stroke-miterlimit="10" cx="395" cy="269.1" r="1.3"/>
	</g>
	<line fill="none" stroke="#010101" stroke-width="3" stroke-miterlimit="10" x1="393.8" y1="172.2" x2="393.8" y2="209.7"/>
	<line fill="none" stroke="#010101" stroke-width="3" stroke-miterlimit="10" x1="257.7" y1="171.7" x2="257.7" y2="209.2"/>
	<g>
		<line fill="none" stroke="#010101" stroke-width="3" stroke-miterlimit="10" x1="70.2" y1="301" x2="70.2" y2="348.1"/>
		<line fill="none" stroke="#010101" stroke-width="3" stroke-miterlimit="10" x1="70.2" y1="308.5" x2="66.1" y2="304.4"/>
		<line fill="none" stroke="#010101" stroke-width="3" stroke-miterlimit="10" x1="70.2" y1="314.5" x2="66.1" y2="310.4"/>
		<line fill="none" stroke="#010101" stroke-width="3" stroke-miterlimit="10" x1="70.1" y1="308.5" x2="74.2" y2="304.4"/>
		<line fill="none" stroke="#010101" stroke-width="3" stroke-miterlimit="10" x1="70.1" y1="314.5" x2="74.2" y2="310.4"/>
	</g>
	<g>
		<line fill="none" stroke="#010101" stroke-width="3" stroke-miterlimit="10" x1="80.2" y1="311" x2="80.2" y2="358.1"/>
		<line fill="none" stroke="#010101" stroke-width="3" stroke-miterlimit="10" x1="80.2" y1="318.5" x2="76.2" y2="314.4"/>
		<line fill="none" stroke="#010101" stroke-width="3" stroke-miterlimit="10" x1="80.2" y1="324.5" x2="76.2" y2="320.4"/>
		<line fill="none" stroke="#010101" stroke-width="3" stroke-miterlimit="10" x1="80.2" y1="318.5" x2="84.2" y2="314.4"/>
		<line fill="none" stroke="#010101" stroke-width="3" stroke-miterlimit="10" x1="80.2" y1="324.5" x2="84.2" y2="320.4"/>
	</g>
</g>
</svg>
