<?xml version="1.0" encoding="utf-8"?>
<!-- Generator: Adobe Illustrator 19.2.1, SVG Export Plug-In . SVG Version: 6.00 Build 0)  -->
<svg version="1.1" id="Layer_1" xmlns="http://www.w3.org/2000/svg" xmlns:xlink="http://www.w3.org/1999/xlink" x="0px" y="0px"
	 viewBox="0 0 526 381" enable-background="new 0 0 526 381" xml:space="preserve">
<g>
	<rect x="11.7" y="10.2" fill="#B8E2DF" stroke="#010101" stroke-width="3" stroke-miterlimit="10" width="504" height="360"/>
	<rect x="11.7" y="210.2" fill="#71AF71" stroke="#010101" stroke-width="3" stroke-miterlimit="10" width="504" height="160"/>
	<g>
		<polygon fill="#064D38" stroke="#010101" stroke-width="3" stroke-miterlimit="10" points="131.3,370.8 291.3,210.7 11.8,210.7 
			11.8,370.1 		"/>
		<line fill="none" stroke="#010101" stroke-width="3" stroke-miterlimit="10" x1="271.3" y1="210.7" x2="111.3" y2="370.8"/>
		<line fill="none" stroke="#010101" stroke-width="3" stroke-miterlimit="10" x1="251.3" y1="210.7" x2="91.3" y2="370.8"/>
		<line fill="none" stroke="#010101" stroke-width="3" stroke-miterlimit="10" x1="231.3" y1="210.7" x2="71.3" y2="370.8"/>
		<line fill="none" stroke="#010101" stroke-width="3" stroke-miterlimit="10" x1="211.3" y1="210.7" x2="51.2" y2="370.8"/>
		<line fill="none" stroke="#010101" stroke-width="3" stroke-miterlimit="10" x1="191.2" y1="210.7" x2="31.2" y2="370.8"/>
		<line fill="none" stroke="#010101" stroke-width="3" stroke-miterlimit="10" x1="171.2" y1="210.7" x2="11.2" y2="370.8"/>
		<line fill="none" stroke="#010101" stroke-width="3" stroke-miterlimit="10" x1="151.2" y1="210.7" x2="11.2" y2="350.8"/>
		<line fill="none" stroke="#010101" stroke-width="3" stroke-miterlimit="10" x1="131.2" y1="210.1" x2="12.4" y2="328.9"/>
		<line fill="none" stroke="#010101" stroke-width="3" stroke-miterlimit="10" x1="111.2" y1="210.1" x2="10.2" y2="311.1"/>
		<line fill="none" stroke="#010101" stroke-width="3" stroke-miterlimit="10" x1="91.2" y1="210.1" x2="11.2" y2="290.1"/>
		<line fill="none" stroke="#010101" stroke-width="3" stroke-miterlimit="10" x1="71.1" y1="210.1" x2="11.8" y2="269.5"/>
		<line fill="none" stroke="#010101" stroke-width="3" stroke-miterlimit="10" x1="51.1" y1="210.1" x2="11.2" y2="250.1"/>
		<line fill="none" stroke="#010101" stroke-width="3" stroke-miterlimit="10" x1="31.1" y1="210.1" x2="11.2" y2="230"/>
	</g>
	<g>
		<polygon fill="#4BBBAD" stroke="#010101" stroke-width="3" stroke-miterlimit="10" points="504.2,210.7 376.4,82.9 312.6,146.7 
			281.1,115.1 185.8,210.4 		"/>
		<polygon fill="#B8E2DF" stroke="#010101" stroke-width="3" stroke-miterlimit="10" points="396.5,103.4 388.9,111 377,99.1 
			369.1,107 360.4,98.9 376.4,82.9 		"/>
		<polygon fill="#B8E2DF" stroke="#010101" stroke-width="3" stroke-miterlimit="10" points="296,130.3 287.5,138.9 280.1,131.5 
			269.3,142.2 261.7,134.5 281.1,115.1 		"/>
	</g>
	<g>
		<line fill="none" stroke="#010101" stroke-width="3" stroke-miterlimit="10" x1="275.3" y1="210.1" x2="275.3" y2="173.1"/>
		<polyline fill="none" stroke="#010101" stroke-width="3" stroke-miterlimit="10" points="267.1,181.3 275.4,173.1 283.5,181.2 		
			"/>
		<polyline fill="none" stroke="#010101" stroke-width="3" stroke-miterlimit="10" points="267.1,203.2 275.4,195 283.5,203.1 		"/>
		<polyline fill="none" stroke="#010101" stroke-width="3" stroke-miterlimit="10" points="267.1,192.3 275.4,184 283.5,192.2 		"/>
	</g>
	<line fill="none" stroke="#010101" stroke-width="3" stroke-miterlimit="10" x1="152.8" y1="191.8" x2="514.2" y2="191.8"/>
	<line fill="none" stroke="#010101" stroke-width="3" stroke-miterlimit="10" x1="152.8" y1="201.7" x2="514.2" y2="201.7"/>
	<g>
		<polygon fill="#064D38" stroke="#010101" stroke-width="3" stroke-miterlimit="10" points="299.4,184.5 321.2,184.5 310.3,163.6 
					"/>
		<line fill="none" stroke="#010101" stroke-width="3" stroke-miterlimit="10" x1="310.3" y1="163.6" x2="310.3" y2="210.1"/>
	</g>
	<g>
		<line fill="none" stroke="#010101" stroke-width="3" stroke-miterlimit="10" x1="256" y1="210.8" x2="256" y2="157.7"/>
		<polyline fill="none" stroke="#010101" stroke-width="3" stroke-miterlimit="10" points="247.8,166 256,157.7 264.2,165.9 		"/>
		<polyline fill="none" stroke="#010101" stroke-width="3" stroke-miterlimit="10" points="247.8,176.9 256,168.7 264.2,176.8 		"/>
	</g>
	<path fill="#A6A6A6" stroke="#010101" stroke-width="3" stroke-miterlimit="10" d="M57.1,74.2c-2.1,0-3.8,1.7-3.8,3.8
		c0,1.5,0.8,2.8,2.1,3.4h41c1.9-1.5,3.8-4.9,3.8-7.5c0-4.4-3.6-7.9-7.9-7.9c-0.8,0-1.6,0.1-2.3,0.3L89.9,66
		c-1.7-4.3-5.9-7.4-10.9-7.4c-5.7,0-10.4,4-11.4,9.4l-0.1,0.5c-0.8-0.4-1.7-0.5-2.7-0.5c-3.5,0-6.3,2.5-6.9,5.9
		C57.6,74.2,57.1,74.2,57.1,74.2z"/>
	<g>
		<circle fill="#E6E01D" stroke="#010101" stroke-width="3" stroke-miterlimit="10" cx="326.8" cy="56.2" r="21.2"/>
		<line fill="none" stroke="#010101" stroke-width="3" stroke-miterlimit="10" x1="326.8" y1="82" x2="326.8" y2="90.7"/>
		<line fill="none" stroke="#010101" stroke-width="3" stroke-miterlimit="10" x1="326.8" y1="21.7" x2="326.8" y2="30.4"/>
		<line fill="none" stroke="#010101" stroke-width="3" stroke-miterlimit="10" x1="301" y1="56.2" x2="292.3" y2="56.2"/>
		<line fill="none" stroke="#010101" stroke-width="3" stroke-miterlimit="10" x1="361.3" y1="56.2" x2="352.6" y2="56.2"/>
		<line fill="none" stroke="#010101" stroke-width="3" stroke-miterlimit="10" x1="308.6" y1="74.5" x2="302.4" y2="80.6"/>
		<line fill="none" stroke="#010101" stroke-width="3" stroke-miterlimit="10" x1="351.2" y1="31.8" x2="345.1" y2="37.9"/>
		<line fill="none" stroke="#010101" stroke-width="3" stroke-miterlimit="10" x1="345.1" y1="74.5" x2="351.2" y2="80.6"/>
		<line fill="none" stroke="#010101" stroke-width="3" stroke-miterlimit="10" x1="302.4" y1="31.8" x2="308.6" y2="37.9"/>
	</g>
	<path fill="#A6A6A6" stroke="#010101" stroke-width="3" stroke-miterlimit="10" d="M453.4,91.4c1.6,0,2.8,1.3,2.8,2.8
		c0,1.1-0.6,2-1.5,2.5h-30.4c-1.4-1.1-2.8-3.7-2.8-5.6c0-3.3,2.6-5.9,5.9-5.9c0.6,0,1.2,0.1,1.7,0.3l0.1-0.3c1.3-3.2,4.4-5.5,8-5.5
		c4.2,0,7.7,3,8.5,7l0.1,0.4c0.6-0.3,1.3-0.4,2-0.4c2.6,0,4.7,1.9,5.1,4.3C453,91.4,453.4,91.4,453.4,91.4z"/>
	<path fill="#A6A6A6" stroke="#010101" stroke-width="3" stroke-miterlimit="10" d="M483,47.1c-0.1,0-0.3,0-0.4,0
		C482,40.3,476.3,35,469.4,35c-4.5,0-8.5,2.2-10.9,5.7c-0.8-0.2-1.6-0.3-2.4-0.3c-5.9,0-10.6,4.8-10.6,10.6c0,0.4,0,0.7,0.1,1.1
		c-0.4-0.1-0.8-0.2-1.2-0.2c-2.7,0-4.9,2.2-4.9,4.9c0,0.2,0.1,1.3,0.1,1.3h49.8c0,0,1-2.4,1-3.7C490.3,50.4,487,47.1,483,47.1z"/>
	<path fill="#A6A6A6" stroke="#010101" stroke-width="3" stroke-miterlimit="10" d="M140.8,47.1c0.1,0,0.3,0,0.4,0
		c0.6-6.8,6.3-12.1,13.2-12.1c4.5,0,8.5,2.2,10.9,5.7c0.8-0.2,1.6-0.3,2.4-0.3c5.9,0,10.6,4.8,10.6,10.6c0,0.4,0,0.7-0.1,1.1
		c0.4-0.1,0.8-0.2,1.2-0.2c2.7,0,4.9,2.2,4.9,4.9c0,0.2-0.1,1.3-0.1,1.3h-49.8c0,0-1-2.4-1-3.7C133.5,50.4,136.8,47.1,140.8,47.1z"
		/>
	<g>
		<line fill="none" stroke="#010101" stroke-width="3" stroke-miterlimit="10" x1="120.1" y1="166.4" x2="120.1" y2="213.5"/>
		<line fill="none" stroke="#010101" stroke-width="3" stroke-miterlimit="10" x1="120.1" y1="173.9" x2="124.1" y2="169.9"/>
		<line fill="none" stroke="#010101" stroke-width="3" stroke-miterlimit="10" x1="120.1" y1="179.9" x2="124.1" y2="175.9"/>
		<line fill="none" stroke="#010101" stroke-width="3" stroke-miterlimit="10" x1="120.1" y1="173.9" x2="116.1" y2="169.9"/>
		<line fill="none" stroke="#010101" stroke-width="3" stroke-miterlimit="10" x1="120.1" y1="179.9" x2="116.1" y2="175.9"/>
	</g>
	<g>
		<line fill="none" stroke="#010101" stroke-width="3" stroke-miterlimit="10" x1="130.1" y1="176.4" x2="130.1" y2="223.5"/>
		<line fill="none" stroke="#010101" stroke-width="3" stroke-miterlimit="10" x1="130.1" y1="183.9" x2="134.2" y2="179.9"/>
		<line fill="none" stroke="#010101" stroke-width="3" stroke-miterlimit="10" x1="130.1" y1="189.9" x2="134.2" y2="185.9"/>
		<line fill="none" stroke="#010101" stroke-width="3" stroke-miterlimit="10" x1="130.2" y1="183.9" x2="126.1" y2="179.9"/>
		<line fill="none" stroke="#010101" stroke-width="3" stroke-miterlimit="10" x1="130.2" y1="189.9" x2="126.1" y2="185.9"/>
	</g>
	<g>
		<line fill="none" stroke="#010101" stroke-width="3" stroke-miterlimit="10" x1="110.1" y1="176.4" x2="110.1" y2="223.5"/>
		<line fill="none" stroke="#010101" stroke-width="3" stroke-miterlimit="10" x1="110.1" y1="183.9" x2="114.1" y2="179.9"/>
		<line fill="none" stroke="#010101" stroke-width="3" stroke-miterlimit="10" x1="110.1" y1="189.9" x2="114.1" y2="185.9"/>
		<line fill="none" stroke="#010101" stroke-width="3" stroke-miterlimit="10" x1="110.1" y1="183.9" x2="106.1" y2="179.9"/>
		<line fill="none" stroke="#010101" stroke-width="3" stroke-miterlimit="10" x1="110.1" y1="189.9" x2="106.1" y2="185.9"/>
	</g>
	<g>
		<line fill="none" stroke="#010101" stroke-width="3" stroke-miterlimit="10" x1="456.3" y1="310.6" x2="456.3" y2="357.7"/>
		<line fill="none" stroke="#010101" stroke-width="3" stroke-miterlimit="10" x1="456.3" y1="318.1" x2="460.4" y2="314.1"/>
		<line fill="none" stroke="#010101" stroke-width="3" stroke-miterlimit="10" x1="456.3" y1="324.1" x2="460.4" y2="320.1"/>
		<line fill="none" stroke="#010101" stroke-width="3" stroke-miterlimit="10" x1="456.4" y1="318.1" x2="452.3" y2="314.1"/>
		<line fill="none" stroke="#010101" stroke-width="3" stroke-miterlimit="10" x1="456.4" y1="324.1" x2="452.3" y2="320.1"/>
	</g>
	<g>
		<path fill="#E8DCD1" stroke="#010101" stroke-width="3" stroke-miterlimit="10" d="M314.9,242l2.8,20.1h6.8l3.5-14.8h25.1
			l3.3,14.8h6.1l-0.2-27.8c0-1.2-1-2.2-2.2-2.2h-36.6"/>
		<g>
			<polygon fill="#E8DCD1" stroke="#010101" stroke-width="3" stroke-miterlimit="10" points="303.9,232.2 310.9,242.9 322.2,242.9 
				328.3,232.2 326.1,223.9 306.2,223.9 			"/>
			<g>
				<circle fill="#010101" cx="314" cy="231.3" r="1.1"/>
				<circle fill="#010101" cx="318.2" cy="231.3" r="1.1"/>
			</g>
			<g>
				<line fill="none" stroke="#010101" stroke-width="3" stroke-miterlimit="10" x1="313.8" y1="236.3" x2="318.4" y2="236.3"/>
				<line fill="none" stroke="#010101" stroke-width="3" stroke-miterlimit="10" x1="316.1" y1="236" x2="316.1" y2="239"/>
			</g>
			<g>
				
					<rect x="298.1" y="222.8" transform="matrix(0.8686 -0.4955 0.4955 0.8686 -72.9396 179.921)" fill="#E8DCD1" stroke="#010101" stroke-width="3" stroke-miterlimit="10" width="9.3" height="9.3"/>
				
					<rect x="324.7" y="222.8" transform="matrix(0.5318 -0.8469 0.8469 0.5318 -38.4616 385.3997)" fill="#E8DCD1" stroke="#010101" stroke-width="3" stroke-miterlimit="10" width="9.3" height="9.3"/>
			</g>
		</g>
		<path fill="none" stroke="#010101" stroke-width="3" stroke-miterlimit="10" d="M362.5,236c0,0,12.1-1.4,8.1-13.2"/>
	</g>
	<rect x="497.5" y="187.8" fill="#E8DCD1" stroke="#010101" stroke-width="3" stroke-miterlimit="10" width="5.5" height="22.6"/>
	<rect x="427.5" y="187.8" fill="#E8DCD1" stroke="#010101" stroke-width="3" stroke-miterlimit="10" width="5.5" height="22.6"/>
	<rect x="357.4" y="187.8" fill="#E8DCD1" stroke="#010101" stroke-width="3" stroke-miterlimit="10" width="5.5" height="22.6"/>
	<rect x="287.4" y="187.8" fill="#E8DCD1" stroke="#010101" stroke-width="3" stroke-miterlimit="10" width="5.5" height="22.6"/>
	<rect x="217.3" y="187.8" fill="#E8DCD1" stroke="#010101" stroke-width="3" stroke-miterlimit="10" width="5.5" height="22.6"/>
	<rect x="147.3" y="187.8" fill="#E8DCD1" stroke="#010101" stroke-width="3" stroke-miterlimit="10" width="5.5" height="22.6"/>
	<g>
		<path fill="#A6A6A6" stroke="#010101" stroke-width="3" stroke-miterlimit="10" d="M131.8,310.1l-24-6.5l-3.9,14.3
			c0,0,2.2,17,7.9,18.6c5.7,1.5,16-11.6,16-11.6L131.8,310.1z"/>
		<line fill="none" stroke="#010101" stroke-width="3" stroke-miterlimit="10" x1="119.8" y1="306.8" x2="132.1" y2="261.2"/>
		
			<rect x="129.3" y="250" transform="matrix(0.2599 -0.9656 0.9656 0.2599 -150.3209 319.1004)" fill="#A6A6A6" stroke="#010101" stroke-width="3" stroke-miterlimit="10" width="7.5" height="15.2"/>
	</g>
	<path fill="#E8DCD1" stroke="#010101" stroke-width="3" stroke-miterlimit="10" d="M140,370.7c-14.1-48.9-59.2-84.6-112.6-84.6
		c-5.3,0-10.5,0.4-15.7,1v83.2L140,370.7z"/>
	<rect x="40.5" y="152.2" fill="#A6A6A6" stroke="#010101" stroke-width="3" stroke-miterlimit="10" width="57.2" height="58"/>
	<polygon fill="#A6A6A6" stroke="#010101" stroke-width="3" stroke-linejoin="round" stroke-miterlimit="10" points="33.1,151.7 
		105.1,151.7 69.1,128.6 	"/>
	<line fill="none" stroke="#010101" stroke-width="3" stroke-miterlimit="10" x1="40.5" y1="170.2" x2="54.5" y2="170.2"/>
	<line fill="none" stroke="#010101" stroke-width="3" stroke-miterlimit="10" x1="40.5" y1="181.3" x2="54.5" y2="181.3"/>
	<line fill="none" stroke="#010101" stroke-width="3" stroke-miterlimit="10" x1="40.5" y1="192.3" x2="54.5" y2="192.3"/>
	<line fill="none" stroke="#010101" stroke-width="3" stroke-miterlimit="10" x1="65.3" y1="170.2" x2="97.7" y2="170.2"/>
	<line fill="none" stroke="#010101" stroke-width="3" stroke-miterlimit="10" x1="65.3" y1="181.3" x2="97.7" y2="181.3"/>
	<line fill="none" stroke="#010101" stroke-width="3" stroke-miterlimit="10" x1="65.3" y1="192.3" x2="97.7" y2="192.3"/>
	<path fill="#A6A6A6" stroke="#010101" stroke-width="3" stroke-miterlimit="10" d="M214.2,91.4c-1.6,0-2.8,1.3-2.8,2.8
		c0,1.1,0.6,2,1.5,2.5h30.4c1.4-1.1,2.8-3.7,2.8-5.6c0-3.3-2.6-5.9-5.9-5.9c-0.6,0-1.2,0.1-1.7,0.3l-0.1-0.3c-1.3-3.2-4.4-5.5-8-5.5
		c-4.2,0-7.7,3-8.5,7l-0.1,0.4c-0.6-0.3-1.3-0.4-2-0.4c-2.6,0-4.7,1.9-5.1,4.3C214.6,91.4,214.2,91.4,214.2,91.4z"/>
	<g>
		<path fill="#E8DCD1" stroke="#010101" stroke-width="3" stroke-miterlimit="10" d="M239.3,305.8c-3-13.5-15-23.6-29.4-23.6
			s-26.4,10.1-29.4,23.6"/>
		<g>
			<path fill="#DD2226" stroke="#010101" stroke-width="3" stroke-miterlimit="10" d="M244.1,327.8v-32h-72.4c0,0,5,32,26.8,32
				H244.1z"/>
			<circle fill="#A6A6A6" stroke="#010101" stroke-width="3" stroke-miterlimit="10" cx="192.3" cy="336.3" r="8.1"/>
			<polyline fill="none" stroke="#010101" stroke-width="3" stroke-miterlimit="10" points="290,297.4 273.5,297.4 244.1,319 
				244.1,344.4 229.1,327.8 			"/>
		</g>
	</g>
	<g>
		<path fill="none" stroke="#010101" stroke-width="3" stroke-miterlimit="10" d="M392.8,339.7c-9.1-9.2-21.7-15-35.7-15
			c-13.7,0-26,5.5-35.1,14.4"/>
		<g>
			<g>
				<g>
					
						<rect x="340.3" y="325.7" transform="matrix(0.8981 -0.4398 0.4398 0.8981 -108.5617 190.7776)" fill="#E8DCD1" stroke="#010101" stroke-width="3" stroke-miterlimit="10" width="34.3" height="7.9"/>
				</g>
				<g>
					
						<rect x="353.5" y="312.5" transform="matrix(0.4398 -0.8981 0.8981 0.4398 -95.8195 505.6619)" fill="#E8DCD1" stroke="#010101" stroke-width="3" stroke-miterlimit="10" width="7.9" height="34.3"/>
				</g>
			</g>
			<path fill="#E6E01D" stroke="#010101" stroke-width="3" stroke-linejoin="round" stroke-miterlimit="10" d="M360.5,285.9
				c0,0-12.6,10.9-12.6,19.9s6.3,10.6,10.6,10.6s8.7-4,8.7-10.1C367.2,300.2,356.7,292.1,360.5,285.9z"/>
			<path fill="#EF4438" stroke="#010101" stroke-width="3" stroke-linejoin="round" stroke-miterlimit="10" d="M358.3,302.6
				c0,0-3.4,2.9-3.4,5.3c0,2.4,1.7,2.8,2.8,2.8c1.1,0,2.3-1.1,2.3-2.7C360,306.4,357.3,304.2,358.3,302.6z"/>
		</g>
	</g>
	<polygon fill="#E8DCD1" stroke="#010101" stroke-width="3" stroke-miterlimit="10" points="515.8,267.3 455.6,211 410.4,211 
		515.8,362.2 	"/>
	<g>
		<line fill="none" stroke="#010101" stroke-width="3" stroke-miterlimit="10" x1="466.3" y1="300.6" x2="466.3" y2="347.7"/>
		<line fill="none" stroke="#010101" stroke-width="3" stroke-miterlimit="10" x1="466.3" y1="308.1" x2="470.4" y2="304.1"/>
		<line fill="none" stroke="#010101" stroke-width="3" stroke-miterlimit="10" x1="466.3" y1="314.1" x2="470.4" y2="310.1"/>
		<line fill="none" stroke="#010101" stroke-width="3" stroke-miterlimit="10" x1="466.4" y1="308.1" x2="462.3" y2="304.1"/>
		<line fill="none" stroke="#010101" stroke-width="3" stroke-miterlimit="10" x1="466.4" y1="314.1" x2="462.3" y2="310.1"/>
	</g>
	<g>
		<g>
			<polygon fill="#E8DCD1" stroke="#010101" stroke-width="3" stroke-miterlimit="10" points="384.8,290.7 438.9,290.7 428.9,256.7 
				394.8,256.7 			"/>
			<g>
				<line fill="none" stroke="#010101" stroke-width="3" stroke-miterlimit="10" x1="431.9" y1="290.7" x2="431.9" y2="315.8"/>
				<line fill="none" stroke="#010101" stroke-width="3" stroke-miterlimit="10" x1="391.8" y1="290.7" x2="391.8" y2="315.8"/>
			</g>
		</g>
		<g>
			<polygon fill="#B8E2DF" stroke="#010101" stroke-width="3" stroke-miterlimit="10" points="399.3,269.4 409.6,269.4 411,248.4 
				398,248.4 			"/>
			<line fill="none" stroke="#010101" stroke-width="3" stroke-miterlimit="10" x1="410.4" y1="256.2" x2="398.5" y2="256.2"/>
			<polyline fill="none" stroke="#010101" stroke-width="3" stroke-miterlimit="10" points="406.9,268.8 401.5,245.9 393.7,239.6 
							"/>
		</g>
		<g>
			<polygon fill="#B8E2DF" stroke="#010101" stroke-width="3" stroke-miterlimit="10" points="414.3,283.8 424.6,283.8 425.9,262.7 
				413,262.7 			"/>
			<line fill="none" stroke="#010101" stroke-width="3" stroke-miterlimit="10" x1="425.4" y1="270.6" x2="413.5" y2="270.6"/>
			<polyline fill="none" stroke="#010101" stroke-width="3" stroke-miterlimit="10" points="421.9,283.1 416.4,260.2 408.7,253.9 
							"/>
		</g>
	</g>
	<g>
		<line fill="none" stroke="#010101" stroke-width="3" stroke-miterlimit="10" x1="496" y1="171.4" x2="496" y2="218.5"/>
		<line fill="none" stroke="#010101" stroke-width="3" stroke-miterlimit="10" x1="496" y1="178.9" x2="500.1" y2="174.9"/>
		<line fill="none" stroke="#010101" stroke-width="3" stroke-miterlimit="10" x1="496" y1="184.9" x2="500.1" y2="180.9"/>
		<line fill="none" stroke="#010101" stroke-width="3" stroke-miterlimit="10" x1="496.1" y1="178.9" x2="492" y2="174.9"/>
		<line fill="none" stroke="#010101" stroke-width="3" stroke-miterlimit="10" x1="496.1" y1="184.9" x2="492" y2="180.9"/>
	</g>
</g>
</svg>
